Coordinates
version=1
nRows=11
nColumns=40
inDegrees=yes

Units are S.I. units (second, meters, Newtons, ...)
If the header above contains a line with 'inDegrees', this indicates whether rotational values are in degrees (yes) or radians (no).

endheader
time	pelvis_tilt	pelvis_list	pelvis_rotation	pelvis_tx	pelvis_ty	pelvis_tz	hip_flexion_r	hip_adduction_r	hip_rotation_r	knee_angle_r	knee_angle_r_beta	ankle_angle_r	subtalar_angle_r	mtp_angle_r	hip_flexion_l	hip_adduction_l	hip_rotation_l	knee_angle_l	knee_angle_l_beta	ankle_angle_l	subtalar_angle_l	mtp_angle_l	lumbar_extension	lumbar_bending	lumbar_rotation	arm_flex_r	arm_add_r	arm_rot_r	elbow_flex_r	pro_sup_r	wrist_flex_r	wrist_dev_r	arm_flex_l	arm_add_l	arm_rot_l	elbow_flex_l	pro_sup_l	wrist_flex_l	wrist_dev_l
      0.89500000	      3.16503009	     -0.06382034	      2.85727986	      0.60968718	      0.94933338	      0.16865666	     17.97319780	    -10.23959401	    -18.99082963	     57.35994238	      1.00111985	     -3.26711410	    -20.36455833	      0.00000000	     -3.60178794	     -0.04535322	    -19.10762855	      9.18067311	      0.16023297	      3.56719894	      8.50003006	      0.00000000	     -4.94738736	     -0.31186229	     -5.38190816	     43.76535652	    -15.73612401	     43.76535652	     75.25928418	     44.99895074	      0.00000000	      0.00000000	     43.76535652	    -15.73612401	     43.76535652	     75.25928418	     44.99895074	      0.00000000	      0.00000000
      0.90000000	      3.13838901	      0.00874882	      3.05971228	      0.61600971	      0.94919468	      0.16808606	     18.40464112	    -10.24241580	    -19.22068739	     56.18729486	      0.98065329	     -2.51901570	    -19.21507981	      0.00000000	     -4.19084250	      0.06921887	    -19.09317276	      8.76496285	      0.15297746	      3.54904674	      9.06654694	      0.00000000	     -4.91234250	     -0.18546712	     -5.32335389	     43.76749048	    -15.73402200	     43.76749048	     75.25783611	     44.99896695	      0.00000000	      0.00000000	     43.76749048	    -15.73402200	     43.76749048	     75.25783611	     44.99896695	      0.00000000	      0.00000000
      0.90500000	      2.98755215	      0.27872073	      3.24349018	      0.62191225	      0.94871652	      0.16783995	     19.06001107	    -10.40233228	    -19.28444359	     55.05943661	      0.96096845	     -2.23034248	    -19.13233230	      0.00000000	     -4.47864519	      0.34052974	    -19.08832075	      8.70456422	      0.15192331	      3.75060486	      9.22036136	      0.00000000	     -4.85921174	     -0.40807381	     -5.18674615	     43.76776868	    -15.73374820	     43.76776868	     75.25764785	     44.99896905	      0.00000000	      0.00000000	     43.76776868	    -15.73374820	     43.76776868	     75.25764785	     44.99896905	      0.00000000	      0.00000000
      0.91000000	      3.04008512	      0.22743452	      3.66119501	      0.62816954	      0.94877436	      0.16693789	     19.20180085	    -10.28620332	    -19.73400251	     53.53777352	      0.93441042	     -1.74723065	    -18.13896291	      0.00000000	     -5.12443429	      0.31346811	    -18.60659000	      8.30479157	      0.14494596	      3.80445736	      9.51840727	      0.00000000	     -4.82523936	     -0.13784210	     -5.17441052	     43.77301865	    -15.72858780	     43.77301865	     75.25411124	     44.99900790	      0.00000000	      0.00000000	     43.77301865	    -15.72858780	     43.77301865	     75.25411124	     44.99900790	      0.00000000	      0.00000000
      0.91500000	      2.86764067	      0.45432278	      3.76804674	      0.63417203	      0.94819654	      0.16692393	     19.81615075	    -10.35133180	    -19.73585402	     52.24245648	      0.91180287	     -1.44062068	    -17.80993654	      0.00000000	     -5.44582365	      0.54887626	    -18.55897435	      8.14043309	      0.14207736	      3.96976097	      9.73165964	      0.00000000	     -4.66171654	     -0.39130885	     -5.03377374	     43.77387750	    -15.72774500	     43.77387750	     75.25353591	     44.99901413	      0.00000000	      0.00000000	     43.77387750	    -15.72774500	     43.77387750	     75.25353591	     44.99901413	      0.00000000	      0.00000000
      0.92000000	      2.71202890	      0.78084477	      3.94458479	      0.64009810	      0.94755889	      0.16674328	     20.37420231	    -10.53493407	    -19.70792690	     50.91195414	      0.88858123	     -1.17114989	    -17.57963221	      0.00000000	     -5.73715625	      0.87630392	    -18.47031691	      8.08324302	      0.14107920	      4.12766816	      9.92725465	      0.00000000	     -4.52738881	     -0.67539390	     -4.87136164	     43.77426723	    -15.72736272	     43.77426723	     75.25327520	     44.99901695	      0.00000000	      0.00000000	     43.77426723	    -15.72736272	     43.77426723	     75.25327520	     44.99901695	      0.00000000	      0.00000000
      0.92500000	      2.68282248	      0.85470237	      4.21851142	      0.64639725	      0.94725511	      0.16613048	     20.58730980	    -10.52339462	    -19.99252837	     49.29696408	      0.86039433	     -0.75852339	    -16.58999891	      0.00000000	     -6.30908734	      0.98025788	    -18.17129908	      7.69666582	      0.13433216	      4.13491371	     10.11359512	      0.00000000	     -4.51108169	     -0.63106550	     -4.85093551	     43.77674472	    -15.72493398	     43.77674472	     75.25162143	     44.99903469	      0.00000000	      0.00000000	     43.77674472	    -15.72493398	     43.77674472	     75.25162143	     44.99903469	      0.00000000	      0.00000000
      0.93000000	      2.51694864	      1.21891076	      4.40582116	      0.65231026	      0.94647031	      0.16601891	     21.10272569	    -10.76587223	    -20.02068973	     47.88106647	      0.83568226	     -0.59596969	    -16.42037054	      0.00000000	     -6.57865417	      1.33507096	    -18.03164083	      7.67426562	      0.13394120	      4.34352627	     10.28588553	      0.00000000	     -4.35294864	     -0.95647172	     -4.67101470	     43.77716357	    -15.72452377	     43.77716357	     75.25134270	     44.99903766	      0.00000000	      0.00000000	     43.77716357	    -15.72452377	     43.77716357	     75.25134270	     44.99903766	      0.00000000	      0.00000000
      0.93500000	      2.65673681	      1.02305117	      4.95659413	      0.65856192	      0.94661447	      0.16474912	     20.86247895	    -10.51320232	    -20.69443188	     45.84022515	      0.80006286	     -0.56215456	    -15.69033301	      0.00000000	     -7.30234107	      1.12694215	    -17.30882199	      7.28233634	      0.12710075	      4.39148085	     10.16436930	      0.00000000	     -4.52486432	     -0.48818235	     -4.99179247	     43.78330291	    -15.71852040	     43.78330291	     75.24727994	     44.99908030	      0.00000000	      0.00000000	     43.78330291	    -15.71852040	     43.78330291	     75.24727994	     44.99908030	      0.00000000	      0.00000000
      0.94000000	      2.44636430	      1.43232326	      5.10863782	      0.66454037	      0.94563765	      0.16468726	     21.38398159	    -10.80401376	    -20.68251877	     44.36250240	      0.77427173	     -0.39981188	    -15.49582654	      0.00000000	     -7.53259824	      1.52775265	    -17.21980990	      7.27233632	      0.12692621	      4.59113657	     10.35844950	      0.00000000	     -4.34439163	     -0.87829678	     -4.79157902	     43.78371645	    -15.71811680	     43.78371645	     75.24700804	     44.99908311	      0.00000000	      0.00000000	     43.78371645	    -15.71811680	     43.78371645	     75.24700804	     44.99908311	      0.00000000	      0.00000000
      0.94500000	      2.28669752	      1.59062456	      5.21765026	      0.67071583	      0.94487099	      0.16460170	     21.72397999	    -10.79857114	    -20.78239394	     42.62012770	      0.74386156	     -0.31587074	    -14.83211238	      0.00000000	     -7.89910716	      1.68440785	    -17.10611841	      7.05743263	      0.12317544	      4.69155656	     10.48096056	      0.00000000	     -4.18684464	     -1.04622229	     -4.75087558	     43.78551844	    -15.71635893	     43.78551844	     75.24582527	     44.99909526	      0.00000000	      0.00000000	     43.78551844	    -15.71635893	     43.78551844	     75.24582527	     44.99909526	      0.00000000	      0.00000000
